<?xml version="1.0" encoding="UTF-8" standalone="no"?>
<svg
   width="24"
   height="24"
   viewBox="0 0 24 24"
   fill="none"
   version="1.1"
   id="svg212"
   xmlns="http://www.w3.org/2000/svg"
   xmlns:svg="http://www.w3.org/2000/svg">
  <defs
     id="defs216" />
  <path
     fill-rule="evenodd"
     clip-rule="evenodd"
     d="m 6.8051809,16.264264 c -0.78105,0.781 -0.78105,2.0473 0,2.8284 L 7.35785,19.5858 H 4.08576 c -0.55229,0 -1,0.4477 -1,1 0,0.5523 0.44771,1 1,1 H 20.0858 c 0.5522,0 1,-0.4477 1,-1 0,-0.5523 -0.4478,-1 -1,-1 h -9.13 l 4.626574,-4.447958 1.534144,0.481296 c 0.560367,0.175338 1.230462,-0.253213 2.331101,-1.530777 1.100639,-1.277564 1.608138,-1.27164 1.508942,-3.646384 C 20.857365,8.0672334 21.090328,7.9077695 20.4705,7.24261 L 16.2279,2.99997 c -0.7811,-0.78105 -2.0474,-0.78105 -2.8284,0 0,0 -2.14508,2.2476596 -3.192772,3.2771757 C 9.1590364,7.3066617 8.7528226,8.3114245 9.0549921,9.9652925 9.3571615,11.61916 9.603696,13.318102 9.603696,13.318102 Z M 11.845641,13.724681 8.2193909,17.678464 9.15683,18.5563 c 0,0 6.154169,-6.131019 6.594701,-6.594721 0.440532,-0.463702 1.141209,-0.361314 1.494924,-0.02106 0.353715,0.340254 0.452217,1.00158 0.03581,1.449301 4.67e-4,0.06062 1.643332,-1.519989 1.643332,-1.519989 l 0.140321,-3.2226536 -4.236486,-4.176938 -3.885588,3.9249452 z"
     fill="currentColor"
     id="path210" />
</svg>
