<?xml version="1.0" encoding="UTF-8" standalone="no"?>
<svg
   version="1.0"
   viewBox="0 0 844.09943 188.6393"
   id="svg32"
   xml:space="preserve"
   width="844.09943"
   height="188.6393"
   xmlns="http://www.w3.org/2000/svg"
   xmlns:svg="http://www.w3.org/2000/svg"><defs
     id="defs36" /><path
     fill="#ff0000"
     d="m 280.18579,1.4046653 c -8.9,2.3 -15.7,8 -16.6,13.6999997 -1.1,7.1 4.9,13.5 15.4,16.5 9.6,2.8 25.20004,-0.9 30.10004,-7.2 3.3,-4.2 2.9,-11 -0.9,-16.0999997 -5.6,-7.60000002 -16.00004,-10.2 -28.00004,-6.9 z m 17.30004,5.4 c 2.9,3 3.3,6.0999997 1.7,10.7999997 -1.5,4.2 -5.40004,5.9 -14.00004,6.3 -8.3,0.3 -9.8,-0.5 -12,-6.3 -2.6,-6.9 5,-13.2999997 16.1,-13.4999997 4.8,-0.1 5.9,0.3 8.20004,2.7 z m 449.2,-0.3 c -10.2,1.7 -16.8,3.9999997 -29,10.3999997 -18.2,9.6 -29.6,19.9 -40.3,36.3 -10.1,15.7 -14.6,29.9 -14.6,46.800005 0,13.1 1.9,22.1 6.6,31.5 13.8,27.5 41.8,47.8 75.6,55 27.6,5.8 54.89998,-0.4 71.99998,-16.4 11.2,-10.5 19.9,-29 25.3,-54 2.8,-12.9 2.3,-33.900005 -1.1,-44.600005 -6,-19.1 -19.1,-39.1 -32,-48.9 -11.5,-8.8 -24.6,-14.3999997 -38.69998,-16.4999997 -8.9,-1.4 -13.6,-1.3 -23.8,0.4 z m 37.19998,40.0999997 c 6.6,1.8 13.1,6.8 16.3,12.4 2.1,3.8 2.5,5.7 2.3,11.9 -0.2,9.2 -1.9,11.4 -8.8,11.4 -5.8,0 -9.1,-2.8 -10,-8.7 -1.2,-6.8 -5.19998,-14.3 -8.99998,-16.6 -3.4,-2.1 -3.6,-2.1 -8.7,-0.5 -14.3,4.7 -29.2,15.3 -25,17.9 0.4,0.2 5.5,1 11.2,1.6 23.2,2.5 34.39998,8.2 41.59998,21.2 2.7,4.900005 2.9,6.100005 2.9,15.300005 0,9.7 -0.1,10.3 -3.3,15.6 -3.9,6.4 -10.4,11.2 -17.49998,13 -3,0.7 -9,1 -16,0.7 -15.4,-0.7 -25.3,-4.6 -35,-13.7 -4.4,-4.1 -7.7,-9.9 -7.7,-13.4 0,-10.1 17.6,-16.700005 32.7,-12.2 4.9,1.5 13.3,7.8 15.3,11.5 2.7,5.1 -7.9,6.9 -14.5,2.5 -2,-1.5 -4,-2.3 -4.3,-2 -0.9,0.8 8.9,9.8 13.1,12 l 3.9,2 2.4,-3 c 8.9,-11 5.8,-29.100005 -6,-35.200005 -1.7,-0.9 -9,-2.4 -16.3,-3.4 -14.4,-2 -22.2,-4.7 -25.3,-8.7 -6.1,-7.7 2.4,-17.3 24,-26.8 8.4,-3.7 13.1,-5 24,-6.8 3.7,-0.6 11.7,0.3 17.69998,2 z m -625.20002,-11.5 c -4.7,2.7 -5.7,7.7 -3.3,17.8 1.6,7.1 0.7,7.8 -7.4,6.1 -3.5,-0.8 -9.9,-1.4 -14.3,-1.4 -7.3,0 -8.8,0.3 -16,3.9 -6.1,3 -9.8,5.8 -15.7,11.7 -8.599995,8.8 -11.899995,14.7 -14.099995,25.6 -0.9,4.100005 -1.8,7.600005 -2.1,7.900005 -0.3,0.3 -3.3,-2 -6.7,-5.1 -9.7,-9.000005 -17.6,-12.200005 -36.6,-15.000005 -13.1,-1.9 -17.6,-3.3 -21.3,-6.6 -3.6,-3.2 -3.8,-4.9 -0.7,-7.8 2.8,-2.7 21.1,-11.3 29.9,-14.2 10.5,-3.4 12,-1.5 13.4,16.5 0.6,8 1,9.3 3.5,11.7 5.3,5.4 11.1,2.9 13,-5.6 0.9,-4.2 0.9,-7.2 0,-13.5 -2.2,-14.9 -6,-21.8 -13.8,-25.2 -9.4,-4 -19.5,-1.6 -44.8,10.7 -19.7000002,9.6 -26.1000002,20.7 -18.7000002,32.5 5.8,9.1 15.5000002,13.6 37.4000002,17.200005 16.7,2.8 22.5,5.3 29,12.7 4.5,5 8.8,13.2 8.8,16.8 0,5.5 -5.9,12.7 -15.1,18.5 -4.7,2.9 -14.7,5.7 -20.1,5.7 -4.5,0 -5.9,-0.5 -9.2,-3.2 -2.1,-1.7 -4.5,-4.5 -5.3,-6.2 -0.8,-1.7 -2.1,-4.2 -2.8,-5.6 -2.6,-4.5 -1.9,-6.7 2.1,-7.3 4.3,-0.7 5.9,0.2 10.2,5.8 3.1,4 3.6,4.3 6,3.4 3.3,-1.3 4.2,-2.6 4.2,-6.2 0,-6.6 -7.3,-15.3 -14.9,-17.6 -9.8,-2.9 -21.3,0 -25.2000002,6.3 -3,4.7 -2.2,15.2 1.6,23.1 4.2000002,8.3 14.5000002,18.7 20.9000002,20.8 9.2,3.1 25.4,1.6 36.5,-3.5 8.4,-3.9 17.5,-10.6 22.5,-16.8 l 5,-6 5.999995,6 c 12.3,12.3 25.7,15.2 47.4,10.4 21.4,-4.8 39,-22.9 29.6,-30.3 -1.5,-1.2 -4.1,-2.1 -6.1,-2.1 -2.9,0 -4.4,0.9 -9.2,6 -10.2,10.5 -27.5,15.7 -40.3,11.8 -4.4,-1.3 -12.3,-9.2 -15.4,-15.5 -2.8,-5.6 -2.7,-25.5 0.1,-33.200005 2.5,-7 10.8,-16.1 17.7,-19.5 8.7,-4.4 21.1,-3.3 31,2.5 2.9,1.8 7.2,3.4 9.5,3.7 3.5,0.4 4.6,0 6.7,-2.1 3.1,-3.1 3.1,-4.4 1.1,-23.9 -1.3,-12.9 -2.7,-18.1 -5.7,-20.5 -2.1,-1.8 -6.2,-2.4 -8.3,-1.2 z m 32.5,6 c -3.9,4.3 -5.2,6.5 -6.1,10.9 -1.6,7.4 -0.6,23.7 2.4,43.5 1.4,8.800005 3.1,23.000005 3.7,31.500005 1.4,18.5 2.3,22.5 5.7,25.6 3.4,3.1 9.4,3.3 12.4,0.3 1.9,-1.9 2,-2.8 1.4,-8.9 l -0.7,-6.8 8.9,-0.4 c 4.8,-0.2 9.3,-0.3 9.8,-0.1 0.6,0.2 3.7,4.2 7,8.9 10.1,14.4 13.5,16.7 20.2,13.9 5.8,-2.4 5.6,-7.6 -0.4,-14.7 -3.9,-4.7 -9.3,-12.7 -9.3,-14 0,-0.4 1.9,-1.8 4.3,-3.2 8.6,-5.1 12.8,-11.6 16.2,-25.2 2.8,-11.000005 3.1,-17.100005 1.1,-23.700005 -1.9,-6.4 -11.7,-20.8 -19.6,-28.8 -9.5,-9.7 -15.6,-11.6 -41.7,-13.4 l -10.3,-0.7 z m 35.3,14.1 c 5.7,1.2 12.3,7.4 20,18.8 4.6,6.8 5.1,8 5,12.9 -0.3,11.8 -4.8,22.900005 -10.8,26.800005 -7.4,4.9 -21.1,8.4 -26.9,6.9 -4,-1 -5.7,-5 -7.7,-19 -1,-7.200005 -2.4,-15.400005 -3.1,-18.100005 -1.3,-5.6 -1.7,-25.9 -0.5,-28.9 0.7,-1.7 1.5,-1.8 10,-1.1 5,0.3 11.3,1.1 14,1.7 z m 346.00004,-14.8 c -9.6,4.5 -19.1,20.5 -20.1,33.7 -1,13.9 5.2,42.200005 12.3,55.900005 0.8,1.6 1.5,3.3 1.5,3.8 0,0.5 -3.1,1.2 -7,1.5 -4,0.3 -11.5,2.1 -17.6,4.2 -5.9,2 -11,3.3 -11.5,2.8 -0.9,-1 -3.1,-10.2 -6.9,-29.3 -4.4,-22.300005 -5.9,-33.100005 -7.4,-50.900005 -1.3,-15.9 -1.4,-16.5 -4,-18.8 -3.6,-3 -7.6,-2.9 -11.1,0.3 l -2.8,2.6 0.6,11.6 c 1.2,22.5 4.3,41.9 12.8,79.400005 4.7,21.1 5,21.9 8.5,24.7 3.8,3 7.4,2.6 17.4,-1.9 11.2,-5 19.1,-7.6 25.8,-8.5 5.3,-0.7 9.2,-3.3 9.2,-6.2 0,-2.3 2.4,-1.4 8.5,3.2 7.3,5.5 19.4,10 30.7,11.5 6.9,0.9 9.6,0.8 16,-0.5 11.6,-2.4 27.1,-11.3 30.3,-17.5 3.1,-5.9 1.7,-12.2 -3.1,-14 -4.5,-1.7 -6.4,-1.1 -11.2,3.7 -2.7,2.6 -7.9,6.1 -12.2,8.2 -6.8,3.3 -8.3,3.6 -16,3.6 -11.1,0 -20.3,-3.2 -27.2,-9.4 -6.1,-5.5 -9.3,-11.2 -13.4,-24.5 -2.4,-7.4 -1.8,-7.8 7.1,-5.1 10,3.1 21.5,4.4 45.1,5.2 16.9,0.5 19.3,0.4 21.6,-1.1 4.5,-2.9 4.4,-6 -0.3,-15.000005 -9.9,-19.1 -12.4,-23.4 -16.5,-29.2 -5.4,-7.6 -15.3,-16.8 -21.7,-20.1 -12.5,-6.3 -28.6,-8 -37.4,-3.9 z m 28.8,17.9 c 6.1,3 12.8,9.1 16.7,15.1 1.5,2.3 3,4.3 3.3,4.6 1,0.8 6.9,12.8 6.9,14.1 0,0.9 -3.5,1 -13.9,0.5 -14.8,-0.7 -22.4,-1.8 -30.9,-4.4 -4.5,-1.3 -5.8,-1.4 -8.9,-0.3 -4.8,1.8 -5.5,0.5 -5,-9 0.5,-8.2 3.6,-15.9 8.6,-21.2 2.5,-2.8 2.9,-2.9 10.2,-2.5 5.7,0.3 9.1,1.2 13,3.1 z m -200,-17.4 c -4.3,4.3 -2.1,10.2 5.5,14.2 2.6,1.4 3.3,2.6 4.7,8.5 0.9,3.8 2.3,9.6 3.1,12.9 3.3,12.7 10.6,63.600005 10.6,73.500005 0,9.5 9.3,12.7 35,11.7 16.7,-0.6 23.1,-2.2 30.3,-7.4 9.9,-7.3 10.1,-14.2 0.8,-22.6 -2.2,-2 -5.8,-4.5 -8.1,-5.7 -2.2,-1.1 -4,-2.4 -4,-2.9 0,-0.5 3,-3.5 6.8,-6.6 3.7,-3.2 8.1,-7.8 9.7,-10.3 2.6,-4 3,-5.5 3,-11.700005 0,-5.9 -0.4,-7.8 -2.9,-12 -8,-13.9 -26,-24.4 -62.9,-36.9 -19.9,-6.8 -28.3,-8 -31.6,-4.7 z m 44.4,26.3 c 19,7.5 31.3,15.4 34.7,22 1.8,3.5 1.8,3.9 0.3,7.1 -1.8,3.900005 -12.2,12.000005 -20.6,16.100005 -6.8,3.3 -18.2,5.4 -20.2,3.8 -0.8,-0.7 -1.9,-5.4 -2.6,-10.9 -0.7,-5.400005 -2.6,-15.800005 -4.3,-23.300005 -1.6,-7.4 -3.2,-15 -3.5,-16.9 l -0.6,-3.3 3.4,0.7 c 1.9,0.4 7.9,2.5 13.4,4.7 z m 17.9,68.900005 c 10.4,2.4 12.6,3.4 12.6,5.4 0,2.1 -6.1,3.5 -18.1,4.2 -14.4,0.8 -15.5,0.4 -16.3,-5.2 -0.4,-2.5 -0.4,-4.9 -0.1,-5.5 1,-1.7 12.3,-1.1 21.9,1.1 z m -131.9,-94.500005 c -7,0.9 -10.5,2.5 -12,5.4 -2.2,4.2 -1.9,19.2 0.6,36.2 1.2,7.9 2.2,19.700005 2.3,26.300005 0.1,6.6 0.4,12.5 0.9,13.2 0.8,1.2 5.2,20.1 6.1,26.5 1.7,11.3 7.1,13.1 33.5,10.9 33.5,-2.7 38.3,-3.8 43.9,-9.9 2.6,-2.9 3.2,-4.4 3.2,-7.9 0,-8.7 -5.1,-15.2 -15.6,-19.8 -3,-1.3 -5.4,-2.8 -5.4,-3.2 0,-0.5 1.6,-2.5 3.6,-4.4 4.6,-4.4 8.9,-11.3 10.5,-16.700005 2.8,-9.6 -3.1,-24.3 -14.2,-35.2 -13.4,-13.3 -40.9,-23.5 -57.4,-21.4 z m 18.9,18.4 c 19.7,5 35.6,18.8 35.6,30.8 0,6.4 -8.8,16.500005 -18.7,21.500005 -9.6,4.8 -23.1,5.8 -25.3,1.8 -1,-2 -7,-45.300005 -7,-51.000005 0,-2.1 0.3,-4.1 0.7,-4.4 1.2,-1.2 6.8,-0.7 14.7,1.3 z m 29.6,74.400005 c 7.5,2 11.7,4.3 10.3,5.7 -1.8,1.8 -39.7,5.3 -42.4,3.9 -2,-1.1 -4.5,-8 -3.7,-10.2 0.9,-2.1 27.5,-1.7 35.8,0.6 z M 281.68579,52.004665 c -2.3,2.5 -2.3,9.2 -0.1,17.8 0.9,3.3 1.6,9.7 1.6,14.3 0,10.4 1.9,61.500005 2.6,68.600005 0.9,9.5 9.5,14.6 15.30004,9.2 2.1,-2 2.2,-2.3 1.6,-20.2 -0.3,-10 -1,-25.7 -1.6,-34.9 -0.5,-9.200005 -0.9,-20.900005 -0.9,-26.100005 0,-5.2 -0.6,-11.3 -1.4,-13.8 -0.7,-2.4 -1.90004,-6.3 -2.50004,-8.6 -0.7,-2.4 -2.1,-5.2 -3.3,-6.3 -2.9,-2.7 -8.9,-2.7 -11.3,0 z"
     id="path30"
     style="fill:#f06810;fill-opacity:1" /></svg>
